<svg xmlns="http://www.w3.org/2000/svg" viewBox="0 0 64 64">
  <defs>
    <linearGradient id="bgE1" x1="0" y1="0" x2="1" y2="1">
      <stop offset="0" stop-color="#3b2626"/>
      <stop offset="1" stop-color="#140b0b"/>
    </linearGradient>
    <linearGradient id="armor1" x1="0" y1="0" x2="1" y2="1">
      <stop offset="0" stop-color="#ff9c3c"/>
      <stop offset="1" stop-color="#c95a1f"/>
    </linearGradient>
  </defs>
  <rect width="64" height="64" fill="url(#bgE1)" rx="8"/>
  <circle cx="32" cy="18" r="11" fill="#2a1a1a" stroke="#0b0607" stroke-width="2"/>
  <path d="M24 16q7-5 16 0" fill="none" stroke="#0b0607" stroke-width="2" stroke-linecap="round"/>
  <ellipse cx="27" cy="19" rx="2.5" ry="1.8" fill="#ffd166"/>
  <ellipse cx="37" cy="19" rx="2.5" ry="1.8" fill="#ffd166"/>
  <path d="M25 24q7 5 14 0" fill="none" stroke="#0b0607" stroke-width="2" stroke-linecap="round"/>
  <path d="M19 52q2-20 26-16 4 3 4 16" fill="url(#armor1)" stroke="#611e11" stroke-width="2"/>
  <path d="M22 29l-10 9" stroke="#611e11" stroke-width="3" stroke-linecap="round"/>
  <path d="M42 29l10 9" stroke="#611e11" stroke-width="3" stroke-linecap="round"/>
  <path d="M27 46l-7 13" stroke="#611e11" stroke-width="3" stroke-linecap="round"/>
  <path d="M37 46l7 13" stroke="#611e11" stroke-width="3" stroke-linecap="round"/>
  <path d="M27 35h10" stroke="#ffe4be" stroke-width="2" stroke-linecap="round" opacity="0.7"/>
</svg>
