<svg xmlns="http://www.w3.org/2000/svg" viewBox="0 0 64 64">
  <defs>
    <linearGradient id="bgE2" x1="0" y1="0" x2="0" y2="1">
      <stop offset="0" stop-color="#1d2d1d"/>
      <stop offset="1" stop-color="#0d140d"/>
    </linearGradient>
    <linearGradient id="armor2" x1="0" y1="0" x2="1" y2="1">
      <stop offset="0" stop-color="#64d298"/>
      <stop offset="1" stop-color="#2a7f57"/>
    </linearGradient>
  </defs>
  <rect width="64" height="64" fill="url(#bgE2)" rx="8"/>
  <circle cx="32" cy="19" r="11" fill="#1a241a" stroke="#061006" stroke-width="2"/>
  <path d="M23 18q9-7 18 0" fill="none" stroke="#061006" stroke-width="2" stroke-linecap="round"/>
  <ellipse cx="27" cy="20" rx="2.4" ry="1.7" fill="#9bffd4"/>
  <ellipse cx="37" cy="20" rx="2.4" ry="1.7" fill="#9bffd4"/>
  <path d="M24 24q8 6 16 0" fill="none" stroke="#061006" stroke-width="2" stroke-linecap="round"/>
  <path d="M20 52q3-18 13-20t11 20" fill="url(#armor2)" stroke="#10462c" stroke-width="2"/>
  <path d="M22 30l-10 8" stroke="#10462c" stroke-width="3" stroke-linecap="round"/>
  <path d="M42 30l10 8" stroke="#10462c" stroke-width="3" stroke-linecap="round"/>
  <path d="M28 46l-6 13" stroke="#10462c" stroke-width="3" stroke-linecap="round"/>
  <path d="M36 46l6 13" stroke="#10462c" stroke-width="3" stroke-linecap="round"/>
  <path d="M27 36h10" stroke="#caffeb" stroke-width="2" stroke-linecap="round" opacity="0.7"/>
</svg>
