<svg xmlns="http://www.w3.org/2000/svg" viewBox="0 0 64 64">
  <defs>
    <linearGradient id="bg0" x1="0" y1="0" x2="0" y2="1">
      <stop offset="0" stop-color="#f8fbff"/>
      <stop offset="1" stop-color="#dbe9ff"/>
    </linearGradient>
    <linearGradient id="suit0" x1="0" y1="0" x2="1" y2="1">
      <stop offset="0" stop-color="#4a90e2"/>
      <stop offset="1" stop-color="#1f64c8"/>
    </linearGradient>
  </defs>
  <rect width="64" height="64" fill="url(#bg0)" rx="8"/>
  <circle cx="32" cy="18" r="11" fill="#f6d2a4" stroke="#2f2f2f" stroke-width="2"/>
  <path d="M25 16q2-5 7-5t7 5" fill="none" stroke="#2f2f2f" stroke-width="2" stroke-linecap="round"/>
  <circle cx="27" cy="19" r="1.5" fill="#2f2f2f"/>
  <circle cx="37" cy="19" r="1.5" fill="#2f2f2f"/>
  <path d="M27 24q5 4 10 0" fill="none" stroke="#2f2f2f" stroke-width="2" stroke-linecap="round"/>
  <path d="M21 52q2-16 11-16t11 16" fill="url(#suit0)" stroke="#1e2f48" stroke-width="2"/>
  <path d="M22 32l-9 7" stroke="#1e2f48" stroke-width="3" stroke-linecap="round"/>
  <path d="M42 32l9 7" stroke="#1e2f48" stroke-width="3" stroke-linecap="round"/>
  <path d="M28 48l-7 11" stroke="#1e2f48" stroke-width="3" stroke-linecap="round"/>
  <path d="M36 48l7 11" stroke="#1e2f48" stroke-width="3" stroke-linecap="round"/>
  <circle cx="32" cy="36" r="6" fill="#1e2f48" opacity="0.15"/>
  <path d="M30 36h4" stroke="#f1f5ff" stroke-width="2" stroke-linecap="round"/>
</svg>
