<svg xmlns="http://www.w3.org/2000/svg" viewBox="0 0 64 64">
  <defs>
    <linearGradient id="bg2" x1="0" y1="0" x2="0" y2="1">
      <stop offset="0" stop-color="#f8f5ff"/>
      <stop offset="1" stop-color="#e1d7ff"/>
    </linearGradient>
    <linearGradient id="suit2" x1="1" y1="0" x2="0" y2="1">
      <stop offset="0" stop-color="#a577ff"/>
      <stop offset="1" stop-color="#6133d8"/>
    </linearGradient>
  </defs>
  <rect width="64" height="64" fill="url(#bg2)" rx="8"/>
  <circle cx="32" cy="18" r="11" fill="#f5d3af" stroke="#332d46" stroke-width="2"/>
  <path d="M23 16c3-5 15-5 18 0" fill="none" stroke="#332d46" stroke-width="2" stroke-linecap="round"/>
  <circle cx="27" cy="20" r="1.5" fill="#332d46"/>
  <circle cx="37" cy="20" r="1.5" fill="#332d46"/>
  <path d="M27 25q5 3 10 0" fill="none" stroke="#332d46" stroke-width="2" stroke-linecap="round"/>
  <path d="M22 51q3-17 20-12 4 2 4 12" fill="url(#suit2)" stroke="#2f2059" stroke-width="2"/>
  <path d="M24 31l-10 8" stroke="#2f2059" stroke-width="3" stroke-linecap="round"/>
  <path d="M40 31l10 8" stroke="#2f2059" stroke-width="3" stroke-linecap="round"/>
  <path d="M29 47l-7 12" stroke="#2f2059" stroke-width="3" stroke-linecap="round"/>
  <path d="M35 47l7 12" stroke="#2f2059" stroke-width="3" stroke-linecap="round"/>
  <circle cx="32" cy="36" r="6" fill="#2f2059" opacity="0.13"/>
  <path d="M29.5 35.5h5" stroke="#efe9ff" stroke-width="2" stroke-linecap="round"/>
</svg>
