<svg xmlns="http://www.w3.org/2000/svg" viewBox="0 0 64 64">
  <defs>
    <linearGradient id="puzzleBg" x1="0" y1="0" x2="1" y2="1">
      <stop offset="0" stop-color="#f2f8ff"/>
      <stop offset="1" stop-color="#d5e2ff"/>
    </linearGradient>
    <linearGradient id="pieceA" x1="0" y1="0" x2="1" y2="1">
      <stop offset="0" stop-color="#60b4ff"/>
      <stop offset="1" stop-color="#1f7be5"/>
    </linearGradient>
    <linearGradient id="pieceB" x1="0" y1="0" x2="1" y2="1">
      <stop offset="0" stop-color="#ffcf66"/>
      <stop offset="1" stop-color="#ffa23a"/>
    </linearGradient>
  </defs>
  <rect width="64" height="64" rx="8" fill="url(#puzzleBg)"/>
  <path d="M18 18h14a4 4 0 0 1 0 8h-2a4 4 0 0 0 0 8h2v14H18a4 4 0 0 1-4-4V22a4 4 0 0 1 4-4z" fill="url(#pieceA)" stroke="#20508f" stroke-width="2"/>
  <path d="M46 46H32a4 4 0 0 1 0-8h2a4 4 0 0 0 0-8h-2V16h14a4 4 0 0 1 4 4v24a4 4 0 0 1-4 4z" fill="url(#pieceB)" stroke="#8a520f" stroke-width="2"/>
  <path d="M26 48h12" stroke="#fff" stroke-width="2" stroke-linecap="round" opacity="0.6"/>
  <path d="M24 16h16" stroke="#fff" stroke-width="2" stroke-linecap="round" opacity="0.4"/>
</svg>
